<svg width="762" height="693" viewBox="0 0 762 693" fill="none" xmlns="http://www.w3.org/2000/svg">
<path d="M695.849 329.08C696.312 334.029 696.654 339.012 696.871 344.027C695.357 344.085 694.174 345.357 694.225 346.873C694.341 350.252 694.399 353.645 694.399 357.051C694.399 360.457 694.341 363.85 694.225 367.229C694.174 368.745 695.357 370.016 696.871 370.075C696.654 375.089 696.312 380.072 695.849 385.022C694.341 384.873 692.995 385.972 692.839 387.48C692.141 394.259 691.212 400.971 690.059 407.611C689.8 409.105 690.797 410.527 692.289 410.793C691.385 415.728 690.359 420.622 689.214 425.473C687.741 425.118 686.256 426.019 685.894 427.492C684.271 434.09 682.425 440.605 680.364 447.029C679.901 448.473 680.693 450.019 682.133 450.488C680.558 455.246 678.866 459.953 677.06 464.607C675.65 464.052 674.055 464.741 673.494 466.15C670.98 472.453 668.256 478.656 665.328 484.75C664.671 486.117 665.243 487.757 666.606 488.42C664.398 492.909 662.08 497.34 659.656 501.707C658.334 500.965 656.661 501.431 655.913 502.75C652.569 508.647 649.029 514.425 645.3 520.078C644.465 521.344 644.811 523.046 646.073 523.886C643.282 528.035 640.391 532.115 637.401 536.123C636.191 535.211 634.47 535.449 633.552 536.657C629.455 542.049 625.178 547.307 620.73 552.423C619.734 553.567 619.852 555.301 620.992 556.3C617.68 560.041 614.277 563.705 610.786 567.288C609.705 566.225 607.968 566.235 606.9 567.313C602.134 572.119 597.206 576.775 592.125 581.273C590.99 582.279 590.881 584.013 591.881 585.152C588.114 588.429 584.265 591.622 580.338 594.725C579.404 593.532 577.679 593.318 576.481 594.248C571.139 598.395 565.654 602.379 560.034 606.191C558.779 607.043 558.449 608.749 559.295 610.006C555.139 612.774 550.912 615.448 546.616 618.027C545.841 616.725 544.159 616.292 542.851 617.062C537.029 620.49 531.082 623.742 525.019 626.811C523.665 627.496 523.121 629.146 523.8 630.501C519.331 632.715 514.8 634.831 510.212 636.845C509.609 635.455 507.994 634.812 506.6 635.41C500.391 638.072 494.077 640.548 487.664 642.829C486.235 643.338 485.487 644.906 485.989 646.336C481.281 647.966 476.522 649.493 471.714 650.913C471.291 649.458 469.77 648.617 468.312 649.035C461.827 650.891 455.255 652.553 448.604 654.013C447.122 654.338 446.183 655.8 446.502 657.282C441.626 658.309 436.709 659.229 431.753 660.039C431.514 658.542 430.111 657.518 428.611 657.75C421.951 658.781 415.222 659.613 408.429 660.237C406.919 660.376 405.805 661.711 405.938 663.221C400.984 663.635 395.997 663.94 390.98 664.134C390.928 662.619 389.661 661.43 388.144 661.477C384.761 661.58 381.364 661.632 377.954 661.632C374.544 661.632 371.147 661.58 367.764 661.477C366.247 661.43 364.98 662.619 364.928 664.134C359.911 663.94 354.924 663.635 349.97 663.221C350.103 661.711 348.989 660.376 347.479 660.237C340.686 659.613 333.957 658.781 327.297 657.75C325.797 657.518 324.394 658.542 324.155 660.039C319.199 659.229 314.282 658.309 309.406 657.282C309.725 655.8 308.786 654.338 307.304 654.013C300.653 652.553 294.081 650.891 287.596 649.035C286.138 648.617 284.617 649.458 284.194 650.913C279.386 649.493 274.627 647.966 269.919 646.336C270.421 644.906 269.673 643.338 268.244 642.829C261.831 640.548 255.517 638.072 249.308 635.41C247.914 634.812 246.299 635.455 245.696 636.845C241.108 634.831 236.577 632.715 232.108 630.501C232.787 629.146 232.243 627.496 230.889 626.811C224.826 623.742 218.879 620.49 213.057 617.062C211.749 616.292 210.067 616.724 209.292 618.027C204.996 615.448 200.769 612.774 196.613 610.006C197.459 608.749 197.129 607.043 195.874 606.191C190.254 602.379 184.769 598.395 179.427 594.248C178.229 593.318 176.504 593.532 175.57 594.725C171.643 591.622 167.794 588.429 164.027 585.152C165.027 584.013 164.918 582.279 163.783 581.273C158.702 576.775 153.774 572.119 149.008 567.313C147.94 566.236 146.203 566.225 145.122 567.288C141.631 563.705 138.228 560.041 134.916 556.3C136.056 555.301 136.174 553.567 135.178 552.423C130.73 547.307 126.453 542.049 122.356 536.657C121.438 535.449 119.717 535.211 118.507 536.123C115.517 532.115 112.626 528.035 109.835 523.886C111.097 523.046 111.443 521.344 110.608 520.078C106.879 514.425 103.339 508.647 99.9953 502.75C99.2471 501.431 97.5735 500.965 96.2521 501.707C93.828 497.34 91.5103 492.91 89.3022 488.42C90.665 487.757 91.2374 486.117 90.5805 484.75C87.6524 478.656 84.9276 472.453 82.4142 466.15C81.8525 464.741 80.2578 464.052 78.8479 464.607C77.0419 459.953 75.3498 455.246 73.7747 450.488C75.2153 450.019 76.007 448.473 75.5437 447.029C73.4829 440.605 71.637 434.09 70.0141 427.492C69.6518 426.019 68.1673 425.118 66.6944 425.473C65.549 420.622 64.5228 415.728 63.6189 410.793C65.1105 410.527 66.1081 409.105 65.8488 407.611C64.6963 400.971 63.767 394.259 63.0685 387.48C62.9131 385.972 61.5673 384.873 60.0594 385.022C59.5956 380.073 59.2537 375.089 59.0366 370.075C60.5507 370.017 61.7342 368.745 61.6825 367.229C61.5673 363.85 61.5092 360.457 61.5092 357.051C61.5092 353.645 61.5673 350.252 61.6825 346.873C61.7342 345.357 60.5507 344.085 59.0366 344.027C59.2537 339.013 59.5956 334.029 60.0594 329.08C61.5673 329.228 62.913 328.13 63.0685 326.621C63.767 319.843 64.6963 313.13 65.8487 306.491C66.1081 304.996 65.1105 303.574 63.6189 303.309C64.5228 298.374 65.549 293.48 66.6944 288.629C68.1673 288.984 69.6517 288.082 70.014 286.61C71.637 280.012 73.4829 273.497 75.5437 267.073C76.007 265.629 75.2153 264.083 73.7747 263.613C75.3498 258.856 77.0419 254.149 78.8479 249.495C80.2578 250.05 81.8524 249.361 82.4142 247.952C84.9276 241.649 87.6524 235.446 90.5804 229.352C91.2373 227.985 90.6649 226.344 89.3021 225.682C91.5102 221.192 93.828 216.762 96.2521 212.395C97.5735 213.137 99.2471 212.671 99.9953 211.352C103.339 205.455 106.879 199.676 110.608 194.024C111.443 192.758 111.097 191.055 109.835 190.215C112.626 186.067 115.517 181.987 118.506 177.979C119.717 178.89 121.438 178.653 122.356 177.445C126.453 172.052 130.73 166.794 135.178 161.679C136.174 160.534 136.055 158.801 134.916 157.802C138.228 154.061 141.631 150.397 145.122 146.814C146.203 147.876 147.94 147.866 149.008 146.789C153.774 141.983 158.702 137.327 163.783 132.828C164.918 131.823 165.027 130.089 164.027 128.95C167.794 125.672 171.643 122.48 175.57 119.377C176.504 120.57 178.229 120.784 179.427 119.854C184.769 115.706 190.254 111.723 195.874 107.911C197.129 107.059 197.459 105.353 196.613 104.095C200.769 101.328 204.996 98.6535 209.292 96.0745C210.066 97.3773 211.749 97.8099 213.057 97.0402C218.879 93.6118 224.826 90.3594 230.889 87.2908C232.243 86.6058 232.787 84.9556 232.108 83.6005C236.577 81.3863 241.108 79.2707 245.696 77.2567C246.299 78.6471 247.914 79.2896 249.308 78.6917C255.517 76.0293 261.831 73.5537 268.244 71.2723C269.673 70.7638 270.421 69.1956 269.919 67.7655C274.627 66.1353 279.386 64.6087 284.194 63.1884C284.617 64.6438 286.138 65.4844 287.596 65.0669C294.081 63.2106 300.653 61.549 307.304 60.0891C308.786 59.7638 309.725 58.3018 309.406 56.82C314.282 55.7927 319.199 54.8728 324.155 54.0628C324.393 55.5597 325.797 56.5838 327.297 56.3516C333.956 55.3203 340.686 54.489 347.479 53.8643C348.989 53.7254 350.102 52.391 349.97 50.881C354.924 50.4667 359.911 50.1613 364.927 49.9675C364.98 51.4824 366.247 52.6713 367.764 52.6251C371.147 52.5221 374.544 52.4702 377.954 52.4702C381.364 52.4702 384.761 52.5221 388.144 52.6251C389.661 52.6713 390.928 51.4824 390.98 49.9675C395.997 50.1613 400.984 50.4667 405.938 50.881C405.805 52.3909 406.919 53.7254 408.429 53.8643C415.222 54.489 421.951 55.3203 428.611 56.3516C430.111 56.5837 431.514 55.5597 431.752 54.0628C436.709 54.8727 441.626 55.7927 446.502 56.82C446.183 58.3017 447.122 59.7638 448.604 60.089C455.255 61.549 461.827 63.2106 468.312 65.0669C469.77 65.4844 471.291 64.6437 471.714 63.1883C476.522 64.6086 481.281 66.1353 485.989 67.7655C485.487 69.1955 486.235 70.7638 487.664 71.2723C494.077 73.5537 500.391 76.0293 506.6 78.6917C507.994 79.2895 509.609 78.6471 510.212 77.2566C514.8 79.2707 519.331 81.3863 523.8 83.6005C523.121 84.9556 523.665 86.6058 525.019 87.2908C531.082 90.3594 537.029 93.6117 542.851 97.0402C544.159 97.8099 545.841 97.3773 546.616 96.0745C550.911 98.6535 555.139 101.328 559.295 104.095C558.449 105.353 558.779 107.059 560.034 107.911C565.654 111.723 571.139 115.706 576.481 119.854C577.679 120.784 579.404 120.57 580.338 119.377C584.265 122.48 588.114 125.672 591.881 128.95C590.881 130.089 590.99 131.823 592.125 132.828C597.206 137.327 602.134 141.983 606.899 146.789C607.968 147.866 609.705 147.876 610.786 146.814C614.277 150.397 617.68 154.061 620.992 157.802C619.852 158.801 619.734 160.534 620.73 161.679C625.178 166.794 629.455 172.052 633.552 177.445C634.47 178.653 636.191 178.89 637.401 177.979C640.391 181.987 643.282 186.067 646.073 190.215C644.811 191.055 644.465 192.758 645.3 194.024C649.029 199.676 652.569 205.455 655.913 211.352C656.661 212.671 658.334 213.137 659.656 212.395C662.08 216.762 664.398 221.192 666.606 225.682C665.243 226.344 664.671 227.984 665.328 229.352C668.255 235.446 670.98 241.649 673.494 247.952C674.055 249.361 675.65 250.05 677.06 249.495C678.866 254.149 680.558 258.856 682.133 263.613C680.693 264.083 679.901 265.629 680.364 267.073C682.425 273.497 684.271 280.012 685.894 286.609C686.256 288.082 687.741 288.984 689.214 288.629C690.359 293.479 691.385 298.374 692.289 303.308C690.797 303.574 689.8 304.996 690.059 306.491C691.212 313.13 692.141 319.843 692.839 326.621C692.995 328.13 694.341 329.228 695.849 329.08Z" stroke="#764CAE" stroke-width="5.50804" stroke-linecap="round" stroke-dasharray="20.66 20.66"/>
<rect x="291.019" y="2.06564" width="156.758" height="156.758" rx="78.3792" fill="white" stroke="#764CAE" stroke-width="4.13103"/>
<mask id="path-3-inside-1_1_799" fill="white">
<path d="M337.788 136.598H339.358L334.5 125.031H333.145L328.419 136.598H329.956L331.079 133.838H336.648L337.788 136.598ZM333.839 127.03L336.103 132.5H331.625L333.839 127.03ZM348.539 124.502V128.815C347.713 127.989 346.556 127.493 345.234 127.493C342.557 127.493 340.624 129.476 340.624 132.153C340.624 134.797 342.557 136.796 345.234 136.796C346.639 136.796 347.845 136.251 348.671 135.342L348.853 136.614H349.943V124.502H348.539ZM345.333 135.441C343.449 135.441 342.061 134.037 342.061 132.153C342.061 130.253 343.449 128.848 345.333 128.848C347.233 128.848 348.621 130.269 348.621 132.153C348.621 134.02 347.233 135.441 345.333 135.441ZM357.303 136.796C359.996 136.796 362.029 134.813 362.029 132.136C362.029 129.476 359.996 127.493 357.303 127.493C354.593 127.493 352.56 129.459 352.56 132.136C352.56 134.813 354.593 136.796 357.303 136.796ZM357.303 135.441C355.386 135.441 353.998 134.053 353.998 132.136C353.998 130.236 355.386 128.848 357.303 128.848C359.203 128.848 360.591 130.236 360.591 132.153C360.591 134.053 359.203 135.441 357.303 135.441ZM369.368 127.493C368.047 127.493 366.89 127.989 366.064 128.815V124.502H364.659V136.598H365.75L365.948 135.342C366.774 136.251 367.98 136.796 369.368 136.796C372.062 136.796 373.979 134.797 373.979 132.136C373.979 129.476 372.062 127.493 369.368 127.493ZM369.269 135.441C367.369 135.441 365.981 134.003 365.981 132.136C365.981 130.269 367.369 128.848 369.269 128.848C371.153 128.848 372.541 130.253 372.541 132.136C372.541 134.037 371.153 135.441 369.269 135.441ZM384.941 132.186C384.941 129.575 383.156 127.493 380.446 127.493C377.852 127.493 375.902 129.492 375.902 132.136C375.902 134.797 377.852 136.796 380.446 136.796C382.379 136.796 383.949 135.722 384.709 133.888H383.222C382.677 134.846 381.685 135.425 380.446 135.425C378.761 135.425 377.521 134.334 377.306 132.682H384.908C384.924 132.516 384.941 132.351 384.941 132.186ZM380.446 128.815C382.032 128.815 383.239 129.806 383.536 131.393H377.339C377.62 129.839 378.827 128.815 380.446 128.815ZM400.714 136.598L396.781 130.6L400.4 125.031H398.764L395.889 129.459L392.997 125.031H391.361L394.997 130.55L391.064 136.598H392.716L395.889 131.707L399.078 136.598H400.714ZM409.428 124.502V128.815C408.602 127.989 407.445 127.493 406.123 127.493C403.447 127.493 401.513 129.476 401.513 132.153C401.513 134.797 403.447 136.796 406.123 136.796C407.528 136.796 408.734 136.251 409.56 135.342L409.742 136.614H410.833V124.502H409.428ZM406.223 135.441C404.339 135.441 402.951 134.037 402.951 132.153C402.951 130.253 404.339 128.848 406.223 128.848C408.123 128.848 409.511 130.269 409.511 132.153C409.511 134.02 408.123 135.441 406.223 135.441Z"/>
</mask>
<path d="M337.788 136.598H339.358L334.5 125.031H333.145L328.419 136.598H329.956L331.079 133.838H336.648L337.788 136.598ZM333.839 127.03L336.103 132.5H331.625L333.839 127.03ZM348.539 124.502V128.815C347.713 127.989 346.556 127.493 345.234 127.493C342.557 127.493 340.624 129.476 340.624 132.153C340.624 134.797 342.557 136.796 345.234 136.796C346.639 136.796 347.845 136.251 348.671 135.342L348.853 136.614H349.943V124.502H348.539ZM345.333 135.441C343.449 135.441 342.061 134.037 342.061 132.153C342.061 130.253 343.449 128.848 345.333 128.848C347.233 128.848 348.621 130.269 348.621 132.153C348.621 134.02 347.233 135.441 345.333 135.441ZM357.303 136.796C359.996 136.796 362.029 134.813 362.029 132.136C362.029 129.476 359.996 127.493 357.303 127.493C354.593 127.493 352.56 129.459 352.56 132.136C352.56 134.813 354.593 136.796 357.303 136.796ZM357.303 135.441C355.386 135.441 353.998 134.053 353.998 132.136C353.998 130.236 355.386 128.848 357.303 128.848C359.203 128.848 360.591 130.236 360.591 132.153C360.591 134.053 359.203 135.441 357.303 135.441ZM369.368 127.493C368.047 127.493 366.89 127.989 366.064 128.815V124.502H364.659V136.598H365.75L365.948 135.342C366.774 136.251 367.98 136.796 369.368 136.796C372.062 136.796 373.979 134.797 373.979 132.136C373.979 129.476 372.062 127.493 369.368 127.493ZM369.269 135.441C367.369 135.441 365.981 134.003 365.981 132.136C365.981 130.269 367.369 128.848 369.269 128.848C371.153 128.848 372.541 130.253 372.541 132.136C372.541 134.037 371.153 135.441 369.269 135.441ZM384.941 132.186C384.941 129.575 383.156 127.493 380.446 127.493C377.852 127.493 375.902 129.492 375.902 132.136C375.902 134.797 377.852 136.796 380.446 136.796C382.379 136.796 383.949 135.722 384.709 133.888H383.222C382.677 134.846 381.685 135.425 380.446 135.425C378.761 135.425 377.521 134.334 377.306 132.682H384.908C384.924 132.516 384.941 132.351 384.941 132.186ZM380.446 128.815C382.032 128.815 383.239 129.806 383.536 131.393H377.339C377.62 129.839 378.827 128.815 380.446 128.815ZM400.714 136.598L396.781 130.6L400.4 125.031H398.764L395.889 129.459L392.997 125.031H391.361L394.997 130.55L391.064 136.598H392.716L395.889 131.707L399.078 136.598H400.714ZM409.428 124.502V128.815C408.602 127.989 407.445 127.493 406.123 127.493C403.447 127.493 401.513 129.476 401.513 132.153C401.513 134.797 403.447 136.796 406.123 136.796C407.528 136.796 408.734 136.251 409.56 135.342L409.742 136.614H410.833V124.502H409.428ZM406.223 135.441C404.339 135.441 402.951 134.037 402.951 132.153C402.951 130.253 404.339 128.848 406.223 128.848C408.123 128.848 409.511 130.269 409.511 132.153C409.511 134.02 408.123 135.441 406.223 135.441Z" fill="black"/>
<path d="M337.788 136.598L332.698 138.701L334.104 142.106H337.788V136.598ZM339.358 136.598V142.106H347.646L344.436 134.465L339.358 136.598ZM334.5 125.031L339.578 122.898L338.161 119.523H334.5V125.031ZM333.145 125.031V119.523H329.445L328.046 122.948L333.145 125.031ZM328.419 136.598L323.32 134.515L320.219 142.106H328.419V136.598ZM329.956 136.598V142.106H333.66L335.057 138.675L329.956 136.598ZM331.079 133.838V128.33H327.375L325.978 131.761L331.079 133.838ZM336.648 133.838L341.739 131.735L340.332 128.33H336.648V133.838ZM333.839 127.03L338.928 124.924L333.783 112.491L328.733 124.963L333.839 127.03ZM336.103 132.5V138.008H344.344L341.192 130.393L336.103 132.5ZM331.625 132.5L326.519 130.433L323.453 138.008H331.625V132.5ZM337.788 142.106H339.358V131.09H337.788V142.106ZM344.436 134.465L339.578 122.898L329.422 127.164L334.28 138.731L344.436 134.465ZM334.5 119.523H333.145V130.539H334.5V119.523ZM328.046 122.948L323.32 134.515L333.518 138.681L338.244 127.114L328.046 122.948ZM328.419 142.106H329.956V131.09H328.419V142.106ZM335.057 138.675L336.181 135.915L325.978 131.761L324.855 134.521L335.057 138.675ZM331.079 139.346H336.648V128.33H331.079V139.346ZM331.557 135.942L332.698 138.701L342.879 134.494L341.739 131.735L331.557 135.942ZM328.75 129.137L331.013 134.606L341.192 130.393L338.928 124.924L328.75 129.137ZM336.103 126.992H331.625V138.008H336.103V126.992ZM336.73 134.567L338.945 129.097L328.733 124.963L326.519 130.433L336.73 134.567ZM348.539 124.502V118.994H343.031V124.502H348.539ZM348.539 128.815L344.644 132.71L354.047 142.113V128.815H348.539ZM348.671 135.342L354.124 134.563L352.468 122.976L344.595 131.637L348.671 135.342ZM348.853 136.614L343.4 137.393L344.076 142.122H348.853V136.614ZM349.943 136.614V142.122H355.451V136.614H349.943ZM349.943 124.502H355.451V118.994H349.943V124.502ZM343.031 124.502V128.815H354.047V124.502H343.031ZM352.434 124.92C350.542 123.028 347.97 121.985 345.234 121.985V133.001C345.201 133.001 345.114 132.994 344.994 132.945C344.876 132.897 344.753 132.819 344.644 132.71L352.434 124.92ZM345.234 121.985C339.437 121.985 335.116 126.512 335.116 132.153H346.132C346.132 132.15 346.131 132.216 346.088 132.326C346.044 132.437 345.967 132.565 345.849 132.684C345.731 132.805 345.596 132.891 345.467 132.944C345.337 132.997 345.25 133.001 345.234 133.001V121.985ZM335.116 132.153C335.116 137.76 339.437 142.304 345.234 142.304V131.288C345.313 131.288 345.592 131.339 345.849 131.6C346.098 131.853 346.132 132.104 346.132 132.153H335.116ZM345.234 142.304C348.11 142.304 350.824 141.162 352.747 139.047L344.595 131.637C344.715 131.505 344.856 131.409 344.991 131.351C345.126 131.293 345.218 131.288 345.234 131.288V142.304ZM343.218 136.121L343.4 137.393L354.305 135.835L354.124 134.563L343.218 136.121ZM348.853 142.122H349.943V131.106H348.853V142.122ZM355.451 136.614V124.502H344.435V136.614H355.451ZM349.943 118.994H348.539V130.01H349.943V118.994ZM345.333 129.933C345.801 129.933 346.408 130.127 346.899 130.622C347.388 131.114 347.569 131.708 347.569 132.153H336.553C336.553 137.042 340.371 140.949 345.333 140.949V129.933ZM347.569 132.153C347.569 132.577 347.397 133.166 346.906 133.662C346.412 134.161 345.802 134.356 345.333 134.356V123.34C340.353 123.34 336.553 127.266 336.553 132.153H347.569ZM345.333 134.356C344.867 134.356 344.262 134.161 343.775 133.668C343.293 133.181 343.113 132.595 343.113 132.153H354.129C354.129 127.282 350.33 123.34 345.333 123.34V134.356ZM343.113 132.153C343.113 131.69 343.302 131.099 343.781 130.616C344.267 130.127 344.868 129.933 345.333 129.933V140.949C350.312 140.949 354.129 137.025 354.129 132.153H343.113ZM357.303 142.304C362.948 142.304 367.537 137.944 367.537 132.136H356.521C356.521 132.036 356.579 131.773 356.815 131.542C357.044 131.316 357.268 131.288 357.303 131.288V142.304ZM367.537 132.136C367.537 126.332 362.935 121.985 357.303 121.985V133.001C357.269 133.001 357.048 132.973 356.82 132.75C356.586 132.521 356.521 132.254 356.521 132.136H367.537ZM357.303 121.985C351.68 121.985 347.052 126.29 347.052 132.136H358.069C358.069 132.17 358.061 132.265 358.007 132.394C357.954 132.521 357.871 132.647 357.762 132.753C357.653 132.859 357.54 132.926 357.445 132.964C357.35 133.002 357.295 133.001 357.303 133.001V121.985ZM347.052 132.136C347.052 137.957 351.654 142.304 357.303 142.304V131.288C357.301 131.288 357.36 131.289 357.457 131.327C357.554 131.366 357.666 131.433 357.772 131.537C357.878 131.641 357.958 131.763 358.009 131.886C358.061 132.01 358.069 132.103 358.069 132.136H347.052ZM357.303 129.933C357.711 129.933 358.315 130.101 358.826 130.613C359.338 131.124 359.506 131.729 359.506 132.136H348.49C348.49 137.095 352.344 140.949 357.303 140.949V129.933ZM359.506 132.136C359.506 132.565 359.329 133.173 358.82 133.681C358.31 134.189 357.71 134.356 357.303 134.356V123.34C352.362 123.34 348.49 127.176 348.49 132.136H359.506ZM357.303 134.356C356.874 134.356 356.266 134.179 355.758 133.669C355.251 133.16 355.083 132.56 355.083 132.153H366.099C366.099 127.212 362.263 123.34 357.303 123.34V134.356ZM355.083 132.153C355.083 131.725 355.259 131.12 355.765 130.615C356.27 130.109 356.875 129.933 357.303 129.933V140.949C362.245 140.949 366.099 137.095 366.099 132.153H355.083ZM366.064 128.815H360.556V142.113L369.958 132.71L366.064 128.815ZM366.064 124.502H371.572V118.994H366.064V124.502ZM364.659 124.502V118.994H359.151V124.502H364.659ZM364.659 136.598H359.151V142.106H364.659V136.598ZM365.75 136.598V142.106H370.456L371.19 137.457L365.75 136.598ZM365.948 135.342L370.024 131.637L362.298 123.139L360.507 134.483L365.948 135.342ZM369.368 121.985C366.632 121.985 364.061 123.028 362.169 124.92L369.958 132.71C369.849 132.819 369.727 132.897 369.608 132.945C369.489 132.994 369.401 133.001 369.368 133.001V121.985ZM371.572 128.815V124.502H360.556V128.815H371.572ZM366.064 118.994H364.659V130.01H366.064V118.994ZM359.151 124.502V136.598H370.167V124.502H359.151ZM364.659 142.106H365.75V131.09H364.659V142.106ZM371.19 137.457L371.389 136.201L360.507 134.483L360.309 135.739L371.19 137.457ZM361.872 139.047C363.788 141.155 366.498 142.304 369.368 142.304V131.288C369.401 131.288 369.498 131.296 369.633 131.354C369.766 131.411 369.904 131.506 370.024 131.637L361.872 139.047ZM369.368 142.304C375.208 142.304 379.487 137.734 379.487 132.136H368.471C368.471 132.137 368.471 132.072 368.514 131.963C368.557 131.855 368.633 131.728 368.75 131.608C368.868 131.488 369.004 131.4 369.135 131.346C369.267 131.292 369.355 131.288 369.368 131.288V142.304ZM379.487 132.136C379.487 126.512 375.182 121.985 369.368 121.985V133.001C369.361 133.001 369.277 132.998 369.147 132.946C369.018 132.893 368.881 132.805 368.76 132.682C368.639 132.56 368.561 132.429 368.516 132.317C368.472 132.204 368.471 132.136 368.471 132.136H379.487ZM369.269 129.933C369.754 129.933 370.357 130.137 370.835 130.622C371.304 131.097 371.489 131.677 371.489 132.136H360.473C360.473 136.972 364.254 140.949 369.269 140.949V129.933ZM371.489 132.136C371.489 132.599 371.301 133.19 370.821 133.673C370.336 134.162 369.735 134.356 369.269 134.356V123.34C364.291 123.34 360.473 127.264 360.473 132.136H371.489ZM369.269 134.356C368.802 134.356 368.195 134.162 367.703 133.667C367.214 133.175 367.033 132.581 367.033 132.136H378.049C378.049 127.247 374.232 123.34 369.269 123.34V134.356ZM367.033 132.136C367.033 131.712 367.206 131.123 367.696 130.627C368.19 130.128 368.801 129.933 369.269 129.933V140.949C374.25 140.949 378.049 137.023 378.049 132.136H367.033ZM384.709 133.888L389.798 135.997L392.954 128.38H384.709V133.888ZM383.222 133.888V128.38H380.019L378.435 131.164L383.222 133.888ZM377.306 132.682V127.174H371.036L371.844 133.392L377.306 132.682ZM384.908 132.682V138.19H389.892L390.388 133.23L384.908 132.682ZM383.536 131.393V136.901H390.173L388.95 130.378L383.536 131.393ZM377.339 131.393L371.919 130.412L370.746 136.901H377.339V131.393ZM390.449 132.186C390.449 126.935 386.585 121.985 380.446 121.985V133.001C380.409 133.001 380.285 132.992 380.114 132.919C379.945 132.846 379.791 132.735 379.67 132.605C379.422 132.338 379.433 132.133 379.433 132.186H390.449ZM380.446 121.985C374.693 121.985 370.394 126.569 370.394 132.136H381.41C381.41 132.197 381.373 132.435 381.14 132.674C380.9 132.918 380.61 133.001 380.446 133.001V121.985ZM370.394 132.136C370.394 137.707 374.68 142.304 380.446 142.304V131.288C380.611 131.288 380.904 131.371 381.144 131.618C381.379 131.859 381.41 132.093 381.41 132.136H370.394ZM380.446 142.304C384.695 142.304 388.219 139.806 389.798 135.997L379.621 131.779C379.614 131.795 379.682 131.638 379.912 131.481C380.147 131.32 380.366 131.288 380.446 131.288V142.304ZM384.709 128.38H383.222V139.396H384.709V128.38ZM378.435 131.164C378.646 130.792 378.977 130.449 379.398 130.213C379.815 129.979 380.198 129.917 380.446 129.917V140.933C383.535 140.933 386.422 139.402 388.009 136.612L378.435 131.164ZM380.446 129.917C380.82 129.917 381.411 130.054 381.953 130.528C382.495 131.003 382.717 131.579 382.768 131.971L371.844 133.392C372.418 137.805 376.009 140.933 380.446 140.933V129.917ZM377.306 138.19H384.908V127.174H377.306V138.19ZM390.388 133.23C390.4 133.111 390.449 132.672 390.449 132.186H379.433C379.433 132.136 379.434 132.096 379.435 132.069C379.436 132.042 379.437 132.025 379.438 132.022C379.438 132.019 379.437 132.024 379.436 132.043C379.435 132.053 379.434 132.065 379.432 132.08C379.431 132.096 379.429 132.112 379.427 132.133L390.388 133.23ZM380.446 134.323C380.065 134.323 379.489 134.19 378.955 133.746C378.419 133.301 378.189 132.763 378.122 132.408L388.95 130.378C388.165 126.191 384.688 123.307 380.446 123.307V134.323ZM383.536 125.885H377.339V136.901H383.536V125.885ZM382.76 132.373C382.687 132.772 382.445 133.312 381.922 133.749C381.396 134.188 380.827 134.323 380.446 134.323V123.307C376.163 123.307 372.674 126.237 371.919 130.412L382.76 132.373ZM400.714 136.598V142.106H410.912L405.32 133.578L400.714 136.598ZM396.781 130.6L392.163 127.598L390.204 130.613L392.175 133.62L396.781 130.6ZM400.4 125.031L405.019 128.032L410.549 119.523H400.4V125.031ZM398.764 125.031V119.523H395.773L394.145 122.031L398.764 125.031ZM395.889 129.459L391.277 132.471L395.902 139.554L400.509 132.459L395.889 129.459ZM392.997 125.031L397.609 122.019L395.979 119.523H392.997V125.031ZM391.361 125.031V119.523H381.138L386.762 128.061L391.361 125.031ZM394.997 130.55L399.614 133.553L401.58 130.531L399.597 127.52L394.997 130.55ZM391.064 136.598L386.446 133.595L380.912 142.106H391.064V136.598ZM392.716 136.598V142.106H395.709L397.337 139.595L392.716 136.598ZM395.889 131.707L400.503 128.698L395.877 121.604L391.268 128.709L395.889 131.707ZM399.078 136.598L394.464 139.606L396.094 142.106H399.078V136.598ZM405.32 133.578L401.388 127.579L392.175 133.62L396.108 139.618L405.32 133.578ZM401.4 133.601L405.019 128.032L395.782 122.03L392.163 127.598L401.4 133.601ZM400.4 119.523H398.764V130.539H400.4V119.523ZM394.145 122.031L391.269 126.46L400.509 132.459L403.384 128.03L394.145 122.031ZM400.501 126.448L397.609 122.019L388.385 128.042L391.277 132.471L400.501 126.448ZM392.997 119.523H391.361V130.539H392.997V119.523ZM386.762 128.061L390.397 133.58L399.597 127.52L395.961 122.001L386.762 128.061ZM390.379 127.547L386.446 133.595L395.682 139.6L399.614 133.553L390.379 127.547ZM391.064 142.106H392.716V131.09H391.064V142.106ZM397.337 139.595L400.51 134.704L391.268 128.709L388.095 133.6L397.337 139.595ZM391.275 134.715L394.464 139.606L403.692 133.589L400.503 128.698L391.275 134.715ZM399.078 142.106H400.714V131.09H399.078V142.106ZM409.428 124.502V118.994H403.92V124.502H409.428ZM409.428 128.815L405.534 132.71L414.936 142.113V128.815H409.428ZM409.56 135.342L415.013 134.563L413.358 122.976L405.485 131.637L409.56 135.342ZM409.742 136.614L404.29 137.393L404.965 142.122H409.742V136.614ZM410.833 136.614V142.122H416.341V136.614H410.833ZM410.833 124.502H416.341V118.994H410.833V124.502ZM403.92 124.502V128.815H414.936V124.502H403.92ZM413.323 124.92C411.431 123.028 408.86 121.985 406.123 121.985V133.001C406.091 133.001 406.003 132.994 405.884 132.945C405.765 132.897 405.643 132.819 405.534 132.71L413.323 124.92ZM406.123 121.985C400.327 121.985 396.005 126.512 396.005 132.153H407.021C407.021 132.15 407.021 132.216 406.977 132.326C406.933 132.437 406.856 132.565 406.738 132.684C406.62 132.805 406.485 132.891 406.356 132.944C406.227 132.997 406.14 133.001 406.123 133.001V121.985ZM396.005 132.153C396.005 137.76 400.327 142.304 406.123 142.304V131.288C406.202 131.288 406.481 131.339 406.738 131.6C406.987 131.853 407.021 132.104 407.021 132.153H396.005ZM406.123 142.304C409 142.304 411.713 141.162 413.636 139.047L405.485 131.637C405.605 131.505 405.745 131.409 405.88 131.351C406.016 131.293 406.107 131.288 406.123 131.288V142.304ZM404.108 136.121L404.29 137.393L415.195 135.835L415.013 134.563L404.108 136.121ZM409.742 142.122H410.833V131.106H409.742V142.122ZM416.341 136.614V124.502H405.325V136.614H416.341ZM410.833 118.994H409.428V130.01H410.833V118.994ZM406.223 129.933C406.69 129.933 407.297 130.127 407.789 130.622C408.277 131.114 408.459 131.708 408.459 132.153H397.443C397.443 137.042 401.26 140.949 406.223 140.949V129.933ZM408.459 132.153C408.459 132.577 408.286 133.166 407.796 133.662C407.302 134.161 406.691 134.356 406.223 134.356V123.34C401.242 123.34 397.443 127.266 397.443 132.153H408.459ZM406.223 134.356C405.756 134.356 405.152 134.161 404.664 133.668C404.182 133.181 404.003 132.595 404.003 132.153H415.019C415.019 127.282 411.22 123.34 406.223 123.34V134.356ZM404.003 132.153C404.003 131.69 404.191 131.099 404.671 130.616C405.156 130.127 405.757 129.933 406.223 129.933V140.949C411.201 140.949 415.019 137.025 415.019 132.153H404.003Z" fill="black" mask="url(#path-3-inside-1_1_799)"/>
<path d="M343.359 27.0148H396.332C404.364 27.0148 410.857 33.4898 410.857 41.4984V92.2763C410.857 100.285 404.364 106.76 396.332 106.76H343.359C335.327 106.76 328.834 100.285 328.834 92.2763V41.4984C328.834 33.4898 335.327 27.0148 343.359 27.0148Z" fill="#470137"/>
<path d="M371.972 47.973L361.719 64.8422L372.655 82.7337C372.723 82.87 372.758 83.0063 372.723 83.1427C372.689 83.279 372.553 83.1767 372.348 83.2108H364.521C363.974 83.2108 363.598 83.1767 363.359 82.8359C362.641 81.4046 361.89 80.0074 361.172 78.5761C360.454 77.1788 359.668 75.7475 358.848 74.2821C358.028 72.8167 357.207 71.3513 356.387 69.8518H356.319C355.601 71.3172 354.815 72.7826 354.029 74.248C353.243 75.7134 352.457 77.1788 351.705 78.6101C350.919 80.0415 350.133 81.5069 349.347 82.9041C349.21 83.2449 348.937 83.279 348.561 83.279H341.042C340.905 83.279 340.803 83.3471 340.803 83.1767C340.768 83.0404 340.803 82.9041 340.871 82.8019L351.5 65.4215L341.144 47.9389C341.042 47.8026 341.008 47.6663 341.076 47.5981C341.144 47.4959 341.281 47.4618 341.418 47.4618H349.176C349.347 47.4618 349.518 47.4959 349.654 47.53C349.791 47.5981 349.894 47.7003 349.996 47.8367C350.645 49.3021 351.397 50.7675 352.183 52.2329C353.004 53.6983 353.79 55.1296 354.644 56.5609C355.464 57.9922 356.216 59.4236 356.934 60.889H357.002C357.72 59.3895 358.472 57.9241 359.224 56.4928C359.976 55.0614 360.762 53.6301 361.548 52.1988C362.334 50.7675 363.086 49.3021 363.838 47.9048C363.872 47.7685 363.94 47.6322 364.043 47.564C364.179 47.4959 364.316 47.4618 364.487 47.4959H371.698C371.869 47.4618 372.04 47.564 372.074 47.7344C372.108 47.7685 372.04 47.9048 371.972 47.973Z" fill="#FF61F6"/>
<path d="M387.761 83.9267C385.232 83.9608 382.703 83.4496 380.413 82.3931C378.26 81.4048 376.483 79.769 375.253 77.7584C373.988 75.6795 373.373 73.0895 373.373 69.9883C373.339 67.4665 373.988 64.9787 375.253 62.7976C376.551 60.5825 378.431 58.7422 380.687 57.5154C383.079 56.1863 385.95 55.5388 389.333 55.5388C389.504 55.5388 389.744 55.5388 390.051 55.5728C390.359 55.6069 390.701 55.6069 391.111 55.641V44.872C391.111 44.6334 391.213 44.4971 391.452 44.4971H398.39C398.561 44.463 398.698 44.5994 398.732 44.7357C398.732 44.7698 398.732 44.8038 398.732 44.8038V77.2472C398.732 77.8606 398.766 78.5422 398.8 79.2919C398.869 80.0076 398.903 80.6892 398.937 81.2685C398.937 81.5071 398.835 81.7116 398.595 81.8138C396.818 82.5635 394.938 83.1088 393.025 83.4496C391.282 83.7563 389.539 83.9267 387.761 83.9267ZM391.111 77.1109V62.116C390.803 62.0479 390.495 61.9797 390.188 61.9456C389.812 61.9116 389.436 61.8775 389.06 61.8775C387.727 61.8775 386.394 62.1501 385.198 62.7635C384.036 63.3429 383.045 64.1949 382.293 65.2854C381.541 66.3759 381.165 67.8413 381.165 69.6135C381.131 70.8062 381.336 71.999 381.746 73.1236C382.088 74.0437 382.601 74.8616 383.284 75.5432C383.934 76.1566 384.72 76.6338 385.608 76.9064C386.531 77.2131 387.488 77.3494 388.445 77.3494C388.958 77.3494 389.436 77.3153 389.88 77.2813C390.325 77.3153 390.701 77.2472 391.111 77.1109Z" fill="#FF61F6"/>
<rect x="603.176" y="231.437" width="156.758" height="156.758" rx="78.3792" fill="white" stroke="#764CAE" stroke-width="4.13103"/>
<path d="M644.154 359.783H645.608V348.216H644.154V359.783ZM649.1 359.783H650.504V347.688H649.1V359.783ZM653.823 359.783H655.228V347.688H653.823V359.783ZM662.348 359.982C664.777 359.982 666.313 358.428 666.313 356.032V350.86H664.909V355.801C664.909 357.536 663.95 358.627 662.348 358.627C660.778 358.627 659.803 357.553 659.803 355.801V350.86H658.398V356.032C658.398 358.428 659.952 359.982 662.348 359.982ZM672.309 359.982C674.424 359.982 675.845 358.908 675.845 357.239C675.845 355.057 674.027 354.76 672.491 354.512C671.301 354.33 670.276 354.149 670.276 353.207C670.276 352.43 671.037 351.934 672.243 351.934C673.499 351.934 674.259 352.463 674.308 353.438H675.63C675.581 351.753 674.292 350.679 672.276 350.679C670.26 350.679 668.905 351.72 668.905 353.256C668.905 355.272 670.623 355.586 672.144 355.851C673.35 356.049 674.457 356.247 674.457 357.305C674.457 358.164 673.581 358.693 672.358 358.693C671.103 358.693 670.194 358.114 670.128 357.057H668.74C668.822 358.858 670.194 359.982 672.309 359.982ZM682.072 358.494C680.849 358.494 680.188 357.833 680.188 356.627V352.133H682.997V350.86H680.188V348.977H679.973L677.213 351.885V352.133H678.783V356.677C678.783 358.61 679.973 359.783 681.89 359.783H683.046V358.494H682.072ZM689.499 350.827C688.21 350.827 687.285 351.306 686.64 352.232L686.425 350.86H685.417V359.783H686.822V354.942C686.822 353.207 687.747 352.149 689.383 352.149H690.292V350.827H689.499ZM699.631 350.86L699.449 352.232C698.623 351.257 697.383 350.679 695.929 350.679C693.285 350.679 691.302 352.661 691.302 355.338C691.302 357.982 693.285 359.982 695.929 359.982C697.383 359.982 698.606 359.403 699.432 358.445L699.581 359.783H700.738V350.86H699.631ZM696.028 358.627C694.144 358.627 692.74 357.206 692.74 355.322C692.74 353.455 694.144 352.034 696.028 352.034C697.929 352.034 699.3 353.438 699.3 355.322C699.3 357.222 697.929 358.627 696.028 358.627ZM707.764 358.494C706.541 358.494 705.88 357.833 705.88 356.627V352.133H708.689V350.86H705.88V348.977H705.665L702.906 351.885V352.133H704.476V356.677C704.476 358.61 705.665 359.783 707.582 359.783H708.739V358.494H707.764ZM715.029 359.982C717.722 359.982 719.755 357.999 719.755 355.322C719.755 352.661 717.722 350.679 715.029 350.679C712.319 350.679 710.286 352.645 710.286 355.322C710.286 357.999 712.319 359.982 715.029 359.982ZM715.029 358.627C713.112 358.627 711.724 357.239 711.724 355.322C711.724 353.422 713.112 352.034 715.029 352.034C716.929 352.034 718.317 353.422 718.317 355.338C718.317 357.239 716.929 358.627 715.029 358.627ZM726.466 350.827C725.178 350.827 724.252 351.306 723.608 352.232L723.393 350.86H722.385V359.783H723.79V354.942C723.79 353.207 724.715 352.149 726.351 352.149H727.26V350.827H726.466Z" fill="black"/>
<path d="M658.311 259.603H711.621C719.703 259.603 726.238 266.119 726.238 274.178V325.278C726.238 333.337 719.703 339.853 711.621 339.853H658.311C650.229 339.853 643.694 333.337 643.694 325.278V274.178C643.694 266.119 650.229 259.603 658.311 259.603Z" fill="#330000"/>
<path d="M683.042 307.849H670.247L667.633 315.909C667.565 316.217 667.29 316.423 666.98 316.389H660.514C660.136 316.389 660.033 316.183 660.136 315.772L671.21 283.98C671.314 283.637 671.417 283.26 671.554 282.848C671.692 282.128 671.761 281.374 671.761 280.619C671.726 280.448 671.864 280.276 672.036 280.242H672.139H680.944C681.219 280.242 681.356 280.345 681.391 280.516L693.944 315.84C694.047 316.217 693.944 316.389 693.6 316.389H686.412C686.171 316.423 685.931 316.252 685.862 316.012L683.042 307.849ZM672.242 300.888H680.978C680.772 300.167 680.496 299.31 680.187 298.418C679.877 297.492 679.568 296.498 679.258 295.469C678.914 294.406 678.605 293.377 678.261 292.314C677.917 291.251 677.607 290.256 677.332 289.262C677.057 288.301 676.816 287.41 676.576 286.587H676.507C676.197 288.061 675.819 289.536 675.337 291.011C674.822 292.657 674.306 294.371 673.755 296.086C673.274 297.835 672.758 299.447 672.242 300.888Z" fill="#FF9A00"/>
<path d="M701.614 286.244C700.479 286.278 699.379 285.832 698.553 285.043C697.762 284.186 697.35 283.054 697.384 281.888C697.35 280.722 697.797 279.625 698.622 278.836C699.448 278.047 700.548 277.636 701.683 277.636C703.025 277.636 704.056 278.047 704.813 278.836C705.57 279.659 705.982 280.756 705.948 281.888C705.982 283.054 705.57 284.186 704.744 285.043C703.953 285.866 702.784 286.312 701.614 286.244ZM697.762 316.012V289.605C697.762 289.262 697.9 289.124 698.21 289.124H705.019C705.329 289.124 705.466 289.296 705.466 289.605V316.012C705.466 316.389 705.329 316.56 705.019 316.56H698.278C697.934 316.56 697.762 316.355 697.762 316.012Z" fill="#FF9A00"/>
<rect x="485.535" y="517.303" width="156.758" height="156.758" rx="78.3792" fill="white" stroke="#764CAE" stroke-width="4.13103"/>
<path d="M522.268 629.976H518.12V641.543H519.575V637.395H522.268C524.466 637.395 526.102 635.809 526.102 633.694C526.102 631.562 524.449 629.976 522.268 629.976ZM522.202 635.991H519.575V631.381H522.202C523.606 631.381 524.631 632.372 524.631 633.694C524.631 635.016 523.606 635.991 522.202 635.991ZM532.998 632.438C531.709 632.438 530.635 632.967 529.941 633.843V629.447H528.536V641.543H529.941V636.685C529.941 635.016 531.114 633.711 532.651 633.711C534.188 633.711 535.047 634.735 535.047 636.536V641.543H536.452V636.206C536.452 633.892 535.13 632.438 532.998 632.438ZM543.666 641.741C546.359 641.741 548.392 639.758 548.392 637.081C548.392 634.421 546.359 632.438 543.666 632.438C540.956 632.438 538.924 634.405 538.924 637.081C538.924 639.758 540.956 641.741 543.666 641.741ZM543.666 640.386C541.749 640.386 540.361 638.998 540.361 637.081C540.361 635.181 541.749 633.793 543.666 633.793C545.566 633.793 546.954 635.181 546.954 637.098C546.954 638.998 545.566 640.386 543.666 640.386ZM554.611 640.254C553.388 640.254 552.727 639.593 552.727 638.387V633.892H555.536V632.62H552.727V630.736H552.512L549.753 633.644V633.892H551.322V638.436C551.322 640.37 552.512 641.543 554.429 641.543H555.586V640.254H554.611ZM561.875 641.741C564.569 641.741 566.601 639.758 566.601 637.081C566.601 634.421 564.569 632.438 561.875 632.438C559.165 632.438 557.133 634.405 557.133 637.081C557.133 639.758 559.165 641.741 561.875 641.741ZM561.875 640.386C559.959 640.386 558.571 638.998 558.571 637.081C558.571 635.181 559.959 633.793 561.875 633.793C563.776 633.793 565.164 635.181 565.164 637.098C565.164 638.998 563.776 640.386 561.875 640.386ZM572.057 641.741C574.172 641.741 575.593 640.667 575.593 638.998C575.593 636.817 573.776 636.52 572.239 636.272C571.049 636.09 570.025 635.908 570.025 634.966C570.025 634.19 570.785 633.694 571.991 633.694C573.247 633.694 574.007 634.223 574.057 635.198H575.379C575.329 633.512 574.04 632.438 572.024 632.438C570.008 632.438 568.653 633.479 568.653 635.016C568.653 637.032 570.372 637.346 571.892 637.61C573.098 637.809 574.205 638.007 574.205 639.064C574.205 639.924 573.33 640.452 572.107 640.452C570.851 640.452 569.942 639.874 569.876 638.816H568.488C568.571 640.618 569.942 641.741 572.057 641.741ZM582.661 632.438C581.372 632.438 580.298 632.967 579.604 633.843V629.447H578.199V641.543H579.604V636.685C579.604 635.016 580.777 633.711 582.314 633.711C583.85 633.711 584.71 634.735 584.71 636.536V641.543H586.114V636.206C586.114 633.892 584.792 632.438 582.661 632.438ZM593.329 641.741C596.022 641.741 598.055 639.758 598.055 637.081C598.055 634.421 596.022 632.438 593.329 632.438C590.619 632.438 588.586 634.405 588.586 637.081C588.586 639.758 590.619 641.741 593.329 641.741ZM593.329 640.386C591.412 640.386 590.024 638.998 590.024 637.081C590.024 635.181 591.412 633.793 593.329 633.793C595.229 633.793 596.617 635.181 596.617 637.098C596.617 638.998 595.229 640.386 593.329 640.386ZM605.427 632.438C603.99 632.438 602.767 633.017 601.941 633.991L601.66 632.62H600.685V644.732H602.089V640.353C602.916 641.229 604.089 641.741 605.427 641.741C608.088 641.741 610.005 639.742 610.005 637.081C610.005 634.421 608.088 632.438 605.427 632.438ZM605.328 640.386C603.428 640.386 602.04 638.965 602.04 637.081C602.04 635.214 603.428 633.793 605.328 633.793C607.212 633.793 608.6 635.198 608.6 637.081C608.6 638.982 607.212 640.386 605.328 640.386Z" fill="black"/>
<path d="M541.59 548.54L587.088 548.448C593.986 548.434 599.575 553.984 599.589 560.862L599.677 604.474C599.691 611.353 594.125 616.925 587.227 616.939L541.729 617.032C534.831 617.045 529.242 611.495 529.228 604.617L529.14 561.005C529.126 554.126 534.692 548.554 541.59 548.54Z" fill="#001E36"/>
<path d="M545.059 596.566L544.998 566.447C544.998 566.242 545.086 566.125 545.291 566.124C545.79 566.123 546.26 566.123 546.935 566.092C547.639 566.061 548.373 566.06 549.166 566.029C549.958 565.998 550.809 565.996 551.719 565.965C552.629 565.934 553.51 565.932 554.391 565.93C556.798 565.926 558.794 566.214 560.439 566.826C561.908 567.32 563.26 568.137 564.377 569.218C565.319 570.152 566.055 571.293 566.527 572.55C566.97 573.779 567.207 575.037 567.21 576.354C567.215 578.871 566.632 580.951 565.461 582.592C564.29 584.234 562.649 585.466 560.743 586.173C558.748 586.908 556.547 587.176 554.14 587.181C553.436 587.182 552.966 587.183 552.672 587.155C552.379 587.126 551.968 587.127 551.41 587.128L551.429 596.524C551.459 596.729 551.312 596.904 551.107 596.934C551.078 596.934 551.048 596.934 550.99 596.934L545.412 596.946C545.178 596.946 545.06 596.829 545.059 596.566ZM551.408 571.761L551.428 581.596C551.839 581.624 552.221 581.653 552.573 581.652L554.129 581.649C555.274 581.647 556.418 581.469 557.503 581.115C558.442 580.85 559.263 580.292 559.907 579.559C560.522 578.826 560.814 577.83 560.811 576.543C560.839 575.635 560.602 574.728 560.131 573.939C559.63 573.179 558.924 572.595 558.073 572.275C556.986 571.838 555.811 571.665 554.608 571.696C553.844 571.698 553.169 571.699 552.612 571.73C552.025 571.701 551.614 571.732 551.408 571.761Z" fill="#31A8FF"/>
<path d="M585.534 579.741C584.653 579.275 583.713 578.955 582.714 578.752C581.628 578.52 580.541 578.376 579.426 578.378C578.839 578.35 578.222 578.439 577.665 578.586C577.284 578.675 576.961 578.881 576.756 579.174C576.61 579.408 576.523 579.701 576.523 579.964C576.524 580.228 576.642 580.491 576.818 580.725C577.083 581.046 577.436 581.309 577.818 581.513C578.494 581.863 579.199 582.184 579.904 582.475C581.49 582.998 583.018 583.727 584.429 584.602C585.399 585.215 586.193 586.033 586.752 587.027C587.224 587.963 587.461 588.987 587.434 590.041C587.466 591.416 587.058 592.793 586.297 593.936C585.477 595.108 584.334 596.018 583.014 596.547C581.577 597.165 579.817 597.491 577.703 597.495C576.353 597.498 575.032 597.383 573.71 597.122C572.683 596.949 571.655 596.629 570.715 596.192C570.509 596.075 570.362 595.871 570.39 595.636L570.38 590.543C570.38 590.456 570.409 590.338 570.497 590.28C570.585 590.221 570.673 590.25 570.761 590.308C571.907 590.979 573.112 591.445 574.404 591.735C575.52 592.026 576.695 592.17 577.869 592.167C578.984 592.165 579.776 592.017 580.304 591.753C580.773 591.547 581.095 591.049 581.094 590.522C581.093 590.112 580.858 589.732 580.387 589.352C579.917 588.973 578.947 588.536 577.508 587.982C576.01 587.459 574.629 586.759 573.335 585.883C572.424 585.241 571.659 584.394 571.1 583.4C570.628 582.464 570.391 581.44 570.418 580.416C570.416 579.157 570.766 577.956 571.409 576.872C572.141 575.7 573.225 574.761 574.486 574.173C575.864 573.468 577.595 573.142 579.679 573.138C580.883 573.136 582.116 573.221 583.32 573.394C584.201 573.509 585.052 573.742 585.846 574.062C585.963 574.091 586.081 574.208 586.14 574.325C586.169 574.442 586.199 574.559 586.199 574.676L586.209 579.447C586.209 579.564 586.151 579.681 586.063 579.74C585.799 579.799 585.652 579.8 585.534 579.741Z" fill="#31A8FF"/>
<rect x="130.13" y="533.701" width="156.758" height="156.758" rx="78.3792" fill="white" stroke="#764CAE" stroke-width="4.13103"/>
<path d="M169.005 657.243H170.575L165.717 645.676H164.362L159.636 657.243H161.172L162.296 654.484H167.865L169.005 657.243ZM165.056 647.676L167.319 653.145H162.841L165.056 647.676ZM182.057 655.954C180.851 655.954 180.19 655.277 180.19 654.071V649.559H183.098V648.386H180.19V645.759H178.785V648.386H174.357V647.692C174.357 646.436 174.852 645.957 176.108 645.957H177.116V644.817H175.86C173.861 644.817 172.985 645.759 172.985 647.659V648.386H171.234V649.559H172.985V657.243H174.39V649.559H178.785V654.153C178.785 656.07 179.975 657.243 181.892 657.243H183.131V655.954H182.057ZM193.704 652.831C193.704 650.22 191.919 648.138 189.209 648.138C186.615 648.138 184.665 650.138 184.665 652.782C184.665 655.442 186.615 657.441 189.209 657.441C191.142 657.441 192.712 656.367 193.472 654.533H191.985C191.44 655.492 190.448 656.07 189.209 656.07C187.524 656.07 186.284 654.979 186.07 653.327H193.671C193.687 653.162 193.704 652.996 193.704 652.831ZM189.209 649.46C190.795 649.46 192.002 650.452 192.299 652.038H186.103C186.384 650.485 187.59 649.46 189.209 649.46ZM200.377 648.287C199.088 648.287 198.163 648.766 197.518 649.692L197.303 648.32H196.295V657.243H197.7V652.402C197.7 650.667 198.625 649.609 200.261 649.609H201.17V648.287H200.377ZM209.137 655.855V651.972H213.797V650.634H209.137V647.064H214.226V645.676H207.683V657.243H214.408V655.855H209.137ZM227.576 648.386H224.8V647.692C224.8 646.436 225.296 645.957 226.552 645.957H227.56V644.817H226.304C224.304 644.817 223.445 645.759 223.445 647.659V648.386H219.033V647.692C219.033 646.436 219.529 645.957 220.785 645.957H221.793V644.817H220.537C218.537 644.817 217.662 645.759 217.662 647.659V648.386H215.91V649.559H217.662V657.243H219.066V649.559H223.445V657.243H224.85V649.559H227.576V648.386ZM237.783 652.831C237.783 650.22 235.999 648.138 233.289 648.138C230.694 648.138 228.744 650.138 228.744 652.782C228.744 655.442 230.694 657.441 233.289 657.441C235.222 657.441 236.792 656.367 237.552 654.533H236.065C235.519 655.492 234.528 656.07 233.289 656.07C231.603 656.07 230.364 654.979 230.149 653.327H237.75C237.767 653.162 237.783 652.996 237.783 652.831ZM233.289 649.46C234.875 649.46 236.081 650.452 236.379 652.038H230.182C230.463 650.485 231.669 649.46 233.289 649.46ZM244.307 657.441C246.423 657.441 248.125 656.169 248.67 654.203H247.249C246.703 655.392 245.613 656.086 244.307 656.086C242.49 656.086 241.102 654.649 241.102 652.782C241.102 650.931 242.473 649.493 244.307 649.493C245.629 649.493 246.737 650.187 247.249 651.344H248.653C248.108 649.394 246.439 648.138 244.307 648.138C241.664 648.138 239.664 650.121 239.664 652.782C239.664 655.442 241.664 657.441 244.307 657.441ZM254.819 655.954C253.596 655.954 252.935 655.293 252.935 654.087V649.592H255.744V648.32H252.935V646.436H252.72L249.961 649.345V649.592H251.53V654.137C251.53 656.07 252.72 657.243 254.637 657.243H255.794V655.954H254.819Z" fill="black"/>
<path d="M185.324 557.297H230.863C237.767 557.297 243.349 562.864 243.349 569.748V613.399C243.349 620.284 237.767 625.85 230.863 625.85H185.324C178.42 625.85 172.837 620.284 172.837 613.399V569.748C172.837 562.864 178.42 557.297 185.324 557.297Z" fill="#00005B"/>
<path d="M201.156 598.31H190.227L187.994 605.224C187.935 605.487 187.7 605.663 187.436 605.634H181.912C181.589 605.634 181.501 605.458 181.589 605.106L191.05 578.066C191.138 577.773 191.226 577.509 191.343 577.158C191.461 576.543 191.52 575.898 191.52 575.254C191.49 575.107 191.608 574.961 191.755 574.931H191.843H199.364C199.57 574.931 199.717 575.019 199.746 575.166L210.47 605.048C210.558 605.37 210.47 605.517 210.176 605.517H204.035C203.83 605.546 203.624 605.399 203.565 605.194L201.156 598.163V598.31ZM191.931 592.48H199.393C199.217 591.865 198.982 591.132 198.718 590.37C198.453 589.579 198.189 588.73 197.924 587.851C197.631 586.943 197.366 586.064 197.072 585.156C196.779 584.248 196.514 583.398 196.279 582.548C196.044 581.728 195.838 580.966 195.633 580.263H195.574C195.31 581.523 194.986 582.783 194.575 584.042C194.134 585.449 193.694 586.914 193.224 588.378C192.842 589.872 192.372 591.249 191.931 592.48Z" fill="#9999FF"/>
<path d="M227.775 595.673H218.462C218.579 596.581 218.873 597.489 219.372 598.28C219.901 599.071 220.636 599.686 221.517 600.038C222.692 600.536 223.985 600.8 225.278 600.77C226.306 600.741 227.334 600.653 228.333 600.448C229.244 600.331 230.125 600.096 230.948 599.774C231.095 599.657 231.183 599.716 231.183 600.009V604.491C231.183 604.608 231.154 604.725 231.124 604.842C231.066 604.93 231.007 604.989 230.919 605.048C229.979 605.458 229.009 605.751 227.981 605.926C226.6 606.19 225.219 606.307 223.809 606.278C221.576 606.278 219.696 605.926 218.168 605.253C216.728 604.637 215.465 603.671 214.466 602.469C213.526 601.327 212.85 600.038 212.439 598.632C212.027 597.255 211.822 595.819 211.822 594.354C211.822 592.772 212.057 591.22 212.556 589.696C213.026 588.232 213.761 586.884 214.76 585.683C215.729 584.511 216.934 583.573 218.315 582.9C219.696 582.226 221.341 581.991 223.221 581.991C224.778 581.962 226.335 582.255 227.775 582.9C228.98 583.427 230.037 584.218 230.86 585.243C231.624 586.239 232.241 587.353 232.623 588.583C233.005 589.755 233.181 590.956 233.181 592.157C233.181 592.86 233.152 593.476 233.122 594.032C233.063 594.589 233.034 594.999 233.005 595.263C232.975 595.468 232.799 595.643 232.593 595.643C232.417 595.643 232.094 595.673 231.624 595.702C231.154 595.761 230.596 595.79 229.92 595.79C229.244 595.79 228.539 595.673 227.775 595.673ZM218.462 591.396H224.661C225.425 591.396 225.983 591.396 226.335 591.366C226.571 591.337 226.806 591.278 227.011 591.132V590.839C227.011 590.458 226.952 590.107 226.835 589.755C226.306 588.114 224.749 587.001 223.016 587.06C221.4 586.972 219.872 587.821 219.108 589.286C218.755 589.96 218.55 590.663 218.462 591.396Z" fill="#9999FF"/>
<path d="M2.06552 309.816C2.06552 266.528 37.1571 231.437 80.4447 231.437C123.732 231.437 158.824 266.528 158.824 309.816C158.824 353.104 123.732 388.195 80.4447 388.195C37.1571 388.195 2.06552 353.104 2.06552 309.816Z" fill="white" stroke="#764CAE" stroke-width="4.13103"/>
<path d="M62.184 350.327V348.939H55.69V360.505H57.1442V355.482H61.7544V354.144H57.1442V350.327H62.184ZM64.6203 350.046H66.1405V348.443H64.6203V350.046ZM64.6699 360.505H66.0744V351.582H64.6699V360.505ZM76.7632 351.582L76.5484 352.97C75.7387 351.996 74.5159 351.401 73.0783 351.401C70.5997 351.401 68.6994 353.334 68.6994 355.813C68.6994 358.308 70.5997 360.225 73.0783 360.225C74.4003 360.225 75.5404 359.729 76.3336 358.903V359.448C76.3336 361.431 75.1108 362.604 73.3262 362.604C72.0373 362.604 70.9137 361.976 70.5171 360.869H69.1125C69.5917 362.753 71.145 363.893 73.3262 363.893C76.0527 363.893 77.7051 362.141 77.7051 359.266V351.599L76.7632 351.582ZM73.227 358.886C71.4424 358.886 70.1205 357.564 70.1205 355.813C70.1205 354.061 71.4424 352.739 73.227 352.739C75.0117 352.739 76.3171 354.045 76.3171 355.813C76.3171 357.581 75.0282 358.886 73.227 358.886ZM90.8885 351.401C89.6657 351.401 88.5256 352.045 87.8646 353.086C87.3689 352.045 86.3939 351.401 85.1216 351.401C83.9979 351.401 82.9569 351.929 82.2629 352.822L82.0316 351.582H81.0236V360.505H82.4282V355.565C82.4282 353.929 83.5022 352.673 84.8076 352.673C86.0965 352.673 86.8401 353.631 86.8401 355.251V360.505H88.2281V355.565C88.2281 353.929 89.3022 352.673 90.6076 352.673C91.88 352.673 92.6235 353.631 92.6235 355.251V360.505H94.0281V354.805C94.0281 352.805 92.7723 351.401 90.8885 351.401ZM104.838 351.582L104.656 352.954C103.83 351.979 102.591 351.401 101.137 351.401C98.4928 351.401 96.5099 353.384 96.5099 356.061C96.5099 358.704 98.4928 360.704 101.137 360.704C102.591 360.704 103.814 360.125 104.64 359.167L104.789 360.505H105.945V351.582H104.838ZM101.236 359.349C99.3521 359.349 97.9475 357.928 97.9475 356.044C97.9475 354.177 99.3521 352.756 101.236 352.756C103.136 352.756 104.508 354.16 104.508 356.044C104.508 357.944 103.136 359.349 101.236 359.349Z" fill="black"/>
<path d="M53.6273 260.278H106.519C114.538 260.278 121.022 266.743 121.022 274.739V325.438C121.022 333.435 114.538 339.9 106.519 339.9H53.6273C45.6082 339.9 39.1247 333.435 39.1247 325.438V274.739C39.1247 266.743 45.6082 260.278 53.6273 260.278Z" fill="#061B51"/>
<path d="M71.6768 328.016C76.623 328.016 80.6374 324.016 80.6374 319.086V310.156H71.6768C66.7305 310.156 62.7162 314.157 62.7162 319.086C62.7162 324.016 66.7305 328.016 71.6768 328.016Z" fill="#0ACF83"/>
<path d="M62.7162 301.226C62.7162 296.297 66.7305 292.296 71.6768 292.296H80.6374V310.156H71.6768C66.7305 310.156 62.7162 306.156 62.7162 301.226Z" fill="#A259FF"/>
<path d="M62.7161 283.365C62.7161 278.436 66.7305 274.435 71.6767 274.435H80.6373V292.296H71.6767C66.7305 292.296 62.7161 288.295 62.7161 283.365Z" fill="#F24E1E"/>
<path d="M80.6368 274.435H89.5974C94.5437 274.435 98.558 278.436 98.558 283.365C98.558 288.295 94.5437 292.296 89.5974 292.296H80.6368V274.435Z" fill="#FF7262"/>
<path d="M98.558 301.226C98.558 306.156 94.5437 310.156 89.5974 310.156C84.6511 310.156 80.6368 306.156 80.6368 301.226C80.6368 296.297 84.6511 292.296 89.5974 292.296C94.5437 292.296 98.558 296.297 98.558 301.226Z" fill="#1ABCFE"/>
<path d="M281.36 350.598H258.755V354.256H268.141V381.443H271.975V354.256H281.36V350.598ZM305.129 369.678C305.129 362.716 300.37 357.164 293.143 357.164C286.225 357.164 281.025 362.496 281.025 369.546C281.025 376.64 286.225 381.972 293.143 381.972C298.299 381.972 302.485 379.108 304.512 374.217H300.546C299.092 376.772 296.448 378.315 293.143 378.315C288.648 378.315 285.344 375.406 284.771 371H305.04C305.085 370.559 305.129 370.119 305.129 369.678ZM293.143 360.689C297.373 360.689 300.59 363.333 301.383 367.563H284.859C285.608 363.421 288.825 360.689 293.143 360.689ZM321.205 381.972C326.845 381.972 331.384 378.579 332.838 373.335H329.048C327.594 376.508 324.686 378.359 321.205 378.359C316.358 378.359 312.656 374.525 312.656 369.546C312.656 364.611 316.314 360.777 321.205 360.777C324.73 360.777 327.682 362.628 329.048 365.712H332.794C331.34 360.513 326.889 357.164 321.205 357.164C314.155 357.164 308.823 362.451 308.823 369.546C308.823 376.64 314.155 381.972 321.205 381.972ZM349.94 357.164C346.503 357.164 343.639 358.574 341.788 360.909V349.188H338.043V381.443H341.788V368.488C341.788 364.038 344.917 360.557 349.015 360.557C353.113 360.557 355.404 363.289 355.404 368.092V381.443H359.149V367.21C359.149 361.041 355.624 357.164 349.94 357.164ZM378.212 357.164C374.554 357.164 371.514 358.75 369.707 361.394L369.002 357.648H366.314V381.443H370.06V368.488C370.06 364.038 373.188 360.557 377.286 360.557C381.384 360.557 383.676 363.289 383.676 368.092V381.443H387.421V367.21C387.421 361.394 383.896 357.164 378.212 357.164ZM405.338 381.972C412.52 381.972 417.94 376.684 417.94 369.546C417.94 362.451 412.52 357.164 405.338 357.164C398.111 357.164 392.691 362.407 392.691 369.546C392.691 376.684 398.111 381.972 405.338 381.972ZM405.338 378.359C400.226 378.359 396.525 374.657 396.525 369.546C396.525 364.478 400.226 360.777 405.338 360.777C410.405 360.777 414.107 364.478 414.107 369.59C414.107 374.657 410.405 378.359 405.338 378.359ZM423.632 381.443H427.378V349.188H423.632V381.443ZM445.658 381.972C452.841 381.972 458.261 376.684 458.261 369.546C458.261 362.451 452.841 357.164 445.658 357.164C438.432 357.164 433.012 362.407 433.012 369.546C433.012 376.684 438.432 381.972 445.658 381.972ZM445.658 378.359C440.547 378.359 436.846 374.657 436.846 369.546C436.846 364.478 440.547 360.777 445.658 360.777C450.726 360.777 454.427 364.478 454.427 369.59C454.427 374.657 450.726 378.359 445.658 378.359ZM483.606 357.648L483.033 361.35C480.874 358.75 477.613 357.164 473.779 357.164C467.17 357.164 462.102 362.319 462.102 368.929C462.102 375.583 467.17 380.694 473.779 380.694C477.305 380.694 480.345 379.372 482.46 377.169V378.623C482.46 383.911 479.199 387.039 474.44 387.039C471.003 387.039 468.007 385.365 466.949 382.413H463.204C464.482 387.436 468.624 390.476 474.44 390.476C481.711 390.476 486.117 385.806 486.117 378.138V357.693L483.606 357.648ZM474.176 377.125C469.417 377.125 465.892 373.6 465.892 368.929C465.892 364.258 469.417 360.733 474.176 360.733C478.935 360.733 482.416 364.214 482.416 368.929C482.416 373.644 478.979 377.125 474.176 377.125ZM493.513 353.55H497.567V349.276H493.513V353.55ZM493.645 381.443H497.39V357.648H493.645V381.443ZM527.172 369.678C527.172 362.716 522.413 357.164 515.186 357.164C508.268 357.164 503.068 362.496 503.068 369.546C503.068 376.64 508.268 381.972 515.186 381.972C520.342 381.972 524.528 379.108 526.555 374.217H522.589C521.135 376.772 518.491 378.315 515.186 378.315C510.692 378.315 507.387 375.406 506.814 371H527.083C527.128 370.559 527.172 370.119 527.172 369.678ZM515.186 360.689C519.416 360.689 522.633 363.333 523.426 367.563H506.902C507.651 363.421 510.868 360.689 515.186 360.689ZM540.296 381.972C545.936 381.972 549.725 379.108 549.725 374.657C549.725 368.841 544.878 368.048 540.78 367.387C537.608 366.902 534.876 366.417 534.876 363.906C534.876 361.835 536.903 360.513 540.119 360.513C543.468 360.513 545.495 361.923 545.627 364.523H549.153C549.02 360.028 545.583 357.164 540.207 357.164C534.832 357.164 531.218 359.94 531.218 364.038C531.218 369.414 535.801 370.251 539.855 370.956C543.072 371.485 546.024 372.013 546.024 374.834C546.024 377.125 543.689 378.535 540.428 378.535C537.079 378.535 534.655 376.993 534.479 374.173H530.778C530.998 378.976 534.655 381.972 540.296 381.972Z" fill="url(#paint0_linear_1_799)"/>
<defs>
<linearGradient id="paint0_linear_1_799" x1="404.83" y1="341.443" x2="404.83" y2="398.443" gradientUnits="userSpaceOnUse">
<stop stop-color="#A583D2"/>
<stop offset="1" stop-color="#6437A0"/>
</linearGradient>
</defs>
</svg>
