<svg width="83" height="80" viewBox="0 0 83 80" fill="none" xmlns="http://www.w3.org/2000/svg">
<g id="Group 4395">
<g id="Layer_2_1_">
<g id="Surfaces">
<g id="UI_UX_Surface">
<g id="Outline_no_shadow">
<path id="Vector" d="M14.6273 0.277588H67.5191C75.5381 0.277588 82.0216 6.74262 82.0216 14.7389V65.4383C82.0216 73.4346 75.5381 79.8996 67.5191 79.8996H14.6273C6.6082 79.8996 0.124695 73.4346 0.124695 65.4383V14.7389C0.124695 6.74262 6.6082 0.277588 14.6273 0.277588Z" fill="#061B51"/>
</g>
</g>
</g>
</g>
<g id="Group 115">
<path id="path0_fill" d="M32.6768 68.0163C37.623 68.0163 41.6374 64.0155 41.6374 59.086V50.1558H32.6768C27.7305 50.1558 23.7162 54.1565 23.7162 59.086C23.7162 64.0155 27.7305 68.0163 32.6768 68.0163Z" fill="#0ACF83"/>
<path id="path1_fill" d="M23.7162 41.226C23.7162 36.2965 27.7305 32.2958 32.6768 32.2958H41.6374V50.1563H32.6768C27.7305 50.1563 23.7162 46.1556 23.7162 41.226Z" fill="#A259FF"/>
<path id="path1_fill_1_" d="M23.7161 23.3655C23.7161 18.4359 27.7305 14.4352 32.6767 14.4352H41.6373V32.2957H32.6767C27.7305 32.2957 23.7161 28.295 23.7161 23.3655Z" fill="#F24E1E"/>
<path id="path2_fill" d="M41.6368 14.4352H50.5974C55.5437 14.4352 59.558 18.4359 59.558 23.3655C59.558 28.295 55.5437 32.2957 50.5974 32.2957H41.6368V14.4352Z" fill="#FF7262"/>
<path id="path3_fill" d="M59.558 41.226C59.558 46.1556 55.5437 50.1563 50.5974 50.1563C45.6511 50.1563 41.6368 46.1556 41.6368 41.226C41.6368 36.2965 45.6511 32.2958 50.5974 32.2958C55.5437 32.2958 59.558 36.2965 59.558 41.226Z" fill="#1ABCFE"/>
</g>
</g>
</svg>
