<svg width="84" height="81" viewBox="0 0 84 81" fill="none" xmlns="http://www.w3.org/2000/svg">
<g id="Group 4395">
<g id="vlpa">
<g id="vlpb">
<g id="vlpc">
<g id="vlpd">
<path id="Vector" d="M15.3114 0.602539H68.6206C76.703 0.602539 83.2377 7.1186 83.2377 15.1779V66.2775C83.2377 74.3369 76.703 80.8529 68.6206 80.8529H15.3114C7.22906 80.8529 0.694382 74.3369 0.694382 66.2775V15.1779C0.694382 7.1186 7.22906 0.602539 15.3114 0.602539Z" fill="#330000"/>
</g>
</g>
</g>
<g id="vlpe">
<g id="vlpf">
<path id="Vector_2" d="M40.0415 48.8494H27.2473L24.6335 56.9088C24.5647 57.2174 24.2895 57.4232 23.98 57.3889H17.5141C17.1358 57.3889 17.0326 57.1831 17.1358 56.7716L28.2103 24.9801C28.3135 24.6372 28.4167 24.2599 28.5543 23.8484C28.6918 23.1282 28.7606 22.3737 28.7606 21.6192C28.7262 21.4477 28.8638 21.2762 29.0358 21.2419H29.1389H37.9436C38.2187 21.2419 38.3563 21.3448 38.3907 21.5163L50.9441 56.8402C51.0473 57.2174 50.9441 57.3889 50.6002 57.3889H43.4121C43.1713 57.4232 42.9305 57.2517 42.8618 57.0117L40.0415 48.8494ZM29.2421 41.8876H37.9779C37.7716 41.1674 37.4964 40.31 37.1869 39.4183C36.8774 38.4923 36.5678 37.4978 36.2583 36.4689C35.9144 35.4058 35.6048 34.3769 35.2609 33.3138C34.917 32.2506 34.6074 31.2561 34.3323 30.2615C34.0571 29.3013 33.8164 28.4096 33.5756 27.5865H33.5069C33.1973 29.0612 32.819 30.5359 32.3375 32.0106C31.8216 33.6567 31.3057 35.3715 30.7554 37.0862C30.2739 38.8353 29.758 40.4472 29.2421 41.8876Z" fill="#FF9A00"/>
<path id="Vector_3" d="M58.6144 27.2437C57.4794 27.278 56.3789 26.8321 55.5534 26.0433C54.7624 25.186 54.3497 24.0542 54.3841 22.8882C54.3497 21.7222 54.7968 20.6247 55.6222 19.8359C56.4477 19.0472 57.5482 18.6356 58.6832 18.6356C60.0245 18.6356 61.0563 19.0472 61.813 19.8359C62.5696 20.659 62.9823 21.7565 62.9479 22.8882C62.9823 24.0542 62.5696 25.186 61.7442 26.0433C60.9531 26.8664 59.7838 27.3123 58.6144 27.2437ZM54.7624 57.0118V30.6046C54.7624 30.2616 54.9 30.1245 55.2095 30.1245H62.0193C62.3289 30.1245 62.4664 30.2959 62.4664 30.6046V57.0118C62.4664 57.389 62.3289 57.5605 62.0193 57.5605H55.2783C54.9344 57.5605 54.7624 57.3547 54.7624 57.0118Z" fill="#FF9A00"/>
</g>
</g>
</g>
</g>
</svg>
