<svg width="72" height="69" viewBox="0 0 72 69" fill="none" xmlns="http://www.w3.org/2000/svg">
<g id="vlpa">
<g id="vlpb">
<g id="vlpc">
<g id="vlpd">
<path id="Vector" d="M13.3239 0.297363H58.8626C65.7668 0.297363 71.349 5.86362 71.349 12.7482V56.3994C71.349 63.284 65.7668 68.8503 58.8626 68.8503H13.3239C6.41963 68.8503 0.837463 63.284 0.837463 56.3994V12.7482C0.837463 5.86362 6.41963 0.297363 13.3239 0.297363Z" fill="#00005B"/>
</g>
</g>
</g>
<g id="vlpe">
<g id="vlpf">
<path id="Vector_2" d="M29.1562 41.3097H18.2269L15.9941 48.2236C15.9353 48.4872 15.7003 48.663 15.4358 48.6337H9.91243C9.58926 48.6337 9.50112 48.4579 9.58926 48.1064L19.0496 21.0661C19.1377 20.7731 19.2258 20.5095 19.3434 20.1579C19.4609 19.5427 19.5196 18.8982 19.5196 18.2537C19.4902 18.1072 19.6078 17.9607 19.7547 17.9314H19.8428H27.364C27.5697 17.9314 27.7166 18.0193 27.746 18.1658L38.4696 48.0478C38.5577 48.3701 38.4696 48.5165 38.1758 48.5165H32.0354C31.8298 48.5458 31.6241 48.3994 31.5653 48.1943L29.1562 41.1632V41.3097ZM19.9309 35.4798H27.3934C27.2171 34.8645 26.9821 34.1321 26.7177 33.3704C26.4533 32.5795 26.1888 31.7299 25.9244 30.851C25.6306 29.9428 25.3662 29.0639 25.0724 28.1557C24.7786 27.2476 24.5142 26.398 24.2792 25.5484C24.0441 24.7281 23.8385 23.9664 23.6328 23.2633H23.574C23.3096 24.523 22.9864 25.7828 22.5751 27.0425C22.1344 28.4487 21.6937 29.9135 21.2237 31.3783C20.8417 32.8724 20.3716 34.2493 19.9309 35.4798Z" fill="#9999FF"/>
<path id="Vector_3" d="M55.7751 38.6728H46.4617C46.5792 39.581 46.873 40.4891 47.3724 41.2801C47.9013 42.0711 48.6358 42.6863 49.5172 43.0379C50.6924 43.5359 51.9851 43.7996 53.2778 43.7703C54.3061 43.741 55.3344 43.6531 56.3333 43.448C57.2441 43.3309 58.1255 43.0965 58.9481 42.7742C59.095 42.657 59.1831 42.7156 59.1831 43.0086V47.4909C59.1831 47.6081 59.1538 47.7253 59.1244 47.8425C59.0656 47.9303 59.0069 47.9889 58.9187 48.0475C57.9786 48.4577 57.009 48.7506 55.9807 48.9264C54.5999 49.1901 53.219 49.3073 51.8088 49.278C49.5759 49.278 47.6956 48.9264 46.1679 48.2526C44.7283 47.6374 43.4649 46.6706 42.466 45.4695C41.5259 44.3269 40.8501 43.0379 40.4388 41.6317C40.0275 40.2548 39.8218 38.8193 39.8218 37.3545C39.8218 35.7725 40.0569 34.2198 40.5563 32.6964C41.0264 31.2316 41.7609 29.8839 42.7598 28.6828C43.7294 27.511 44.9339 26.5735 46.3148 25.8997C47.6956 25.2259 49.3409 24.9915 51.2212 24.9915C52.7783 24.9622 54.3355 25.2552 55.7751 25.8997C56.9796 26.427 58.0373 27.218 58.86 28.2434C59.6238 29.2394 60.2408 30.3527 60.6227 31.5831C61.0047 32.755 61.181 33.9561 61.181 35.1572C61.181 35.8604 61.1516 36.4756 61.1222 37.0322C61.0634 37.5888 61.0341 37.999 61.0047 38.2626C60.9753 38.4677 60.799 38.6435 60.5934 38.6435C60.4171 38.6435 60.0939 38.6728 59.6238 38.7021C59.1538 38.7607 58.5955 38.79 57.9198 38.79C57.2441 38.79 56.539 38.6728 55.7751 38.6728ZM46.4617 34.3955H52.6608C53.4247 34.3955 53.9829 34.3955 54.3355 34.3663C54.5705 34.337 54.8055 34.2784 55.0112 34.1319V33.8389C55.0112 33.4581 54.9524 33.1065 54.8349 32.755C54.3061 31.1144 52.749 30.0011 51.0155 30.0597C49.3997 29.9718 47.8719 30.8214 47.108 32.2862C46.7555 32.96 46.5498 33.6631 46.4617 34.3955Z" fill="#9999FF"/>
</g>
</g>
</g>
</svg>
