<svg width="71" height="70" viewBox="0 0 71 70" fill="none" xmlns="http://www.w3.org/2000/svg">
<g id="Layer_2_1_">
<g id="Surfaces">
<g id="Photo_Surface">
<g id="Outline_no_shadow">
<path id="Vector" d="M12.5902 0.539686L58.0883 0.447579C64.9864 0.433615 70.5749 5.98363 70.5888 12.8621L70.6771 56.4744C70.691 63.3528 65.1251 68.9254 58.227 68.9394L12.7289 69.0315C5.83076 69.0455 0.242311 63.4955 0.228386 56.617L0.140097 13.0047C0.126172 6.12624 5.6921 0.553651 12.5902 0.539686Z" fill="#001E36"/>
</g>
</g>
</g>
<g id="Outlined_Mnemonics_Logos">
<g id="Ps">
<path id="Vector_2" d="M16.0593 48.5659L15.9984 18.4471C15.9979 18.2422 16.0858 18.1249 16.2912 18.1245C16.7902 18.1235 17.2599 18.1225 17.935 18.0919C18.6394 18.0612 19.3732 18.0597 20.1657 18.0288C20.9582 17.998 21.8095 17.9962 22.7194 17.9651C23.6293 17.934 24.5099 17.9322 25.3905 17.9304C27.7975 17.9256 29.7941 18.2142 31.4392 18.8256C32.9079 19.3202 34.2598 20.137 35.3774 21.2178C36.3187 22.1525 37.0548 23.2925 37.527 24.5502C37.9698 25.7786 38.2072 27.0368 38.2098 28.3539C38.2149 30.8711 37.6321 32.9505 36.4612 34.592C35.2904 36.2335 33.6491 37.4662 31.7425 38.1725C29.748 38.9083 27.547 39.1762 25.14 39.1811C24.4355 39.1825 23.9658 39.1834 23.6722 39.1548C23.3787 39.1261 22.9677 39.1269 22.41 39.128L22.429 48.5237C22.4588 48.7286 22.3124 48.9045 22.1069 48.9342C22.0776 48.9342 22.0482 48.9343 21.9895 48.9344L16.4123 48.9457C16.1775 48.9462 16.0599 48.8293 16.0593 48.5659ZM22.4082 23.7612L22.4281 33.596C22.8391 33.6244 23.2208 33.6529 23.573 33.6522L25.1288 33.649C26.2736 33.6467 27.418 33.4688 28.5034 33.1153C29.4422 32.85 30.2629 32.2922 30.9072 31.5592C31.5222 30.8262 31.8137 29.8304 31.8111 28.5425C31.8386 27.6351 31.602 26.7282 31.1307 25.9388C30.6301 25.1788 29.9245 24.5949 29.0726 24.2746C27.9856 23.8378 26.8111 23.6645 25.6077 23.6962C24.8445 23.6978 24.1693 23.6991 23.6117 23.7295C23.0245 23.7015 22.6136 23.7316 22.4082 23.7612Z" fill="#31A8FF"/>
<path id="Vector_3" d="M56.5342 31.7413C55.6526 31.2747 54.7127 30.9547 53.7142 30.7518C52.6277 30.5198 51.5413 30.3757 50.4259 30.3779C49.8387 30.3499 49.2225 30.4389 48.6651 30.5864C48.2836 30.675 47.9612 30.8805 47.7563 31.1736C47.61 31.4081 47.5225 31.701 47.5231 31.9644C47.5236 32.2278 47.6415 32.491 47.8181 32.7248C48.083 33.0463 48.4357 33.309 48.8178 33.5131C49.4936 33.863 50.1987 34.1835 50.9038 34.4748C52.49 34.9984 54.0178 35.7271 55.4286 36.6024C56.3985 37.2151 57.1927 38.033 57.7525 39.0271C58.224 39.9628 58.4609 40.9867 58.4337 42.0405C58.4658 43.4161 58.0577 44.7927 57.2968 45.9357C56.4772 47.1082 55.3343 48.0179 54.0144 48.5474C52.5774 49.165 50.8168 49.4905 48.7033 49.4948C47.3531 49.4976 46.0319 49.3831 44.7105 49.1224C43.6827 48.9488 42.6547 48.629 41.7145 48.1918C41.5088 48.0751 41.3616 47.8706 41.3905 47.6363L41.3802 42.5434C41.38 42.4555 41.4091 42.3384 41.4971 42.2797C41.585 42.221 41.6731 42.2501 41.7613 42.3084C42.9075 42.9793 44.1119 43.4452 45.4041 43.7353C46.5201 44.0257 47.6945 44.1697 48.8687 44.1673C49.9841 44.1651 50.7764 44.0171 51.3042 43.7526C51.7734 43.5468 52.0953 43.0485 52.0943 42.5217C52.0934 42.1119 51.8578 41.7318 51.3874 41.3523C50.917 40.9727 49.9474 40.5356 48.508 39.9824C47.0099 39.4586 45.6288 38.7589 44.3355 37.8834C43.4242 37.2413 42.6593 36.394 42.0996 35.4C41.628 34.4643 41.3911 33.4403 41.4184 32.4158C41.4158 31.1572 41.7657 29.9564 42.4092 28.8721C43.1407 27.6998 44.2249 26.761 45.4859 26.173C46.8641 25.4678 48.5953 25.1423 50.6794 25.1381C51.8829 25.1356 53.116 25.221 54.3198 25.3941C55.2007 25.5094 56.0524 25.7419 56.8456 26.0622C56.9631 26.0913 57.0807 26.2081 57.1397 26.3251C57.1693 26.4421 57.1988 26.5591 57.1991 26.6762L57.2087 31.4472C57.209 31.5643 57.1505 31.6815 57.0626 31.7402C56.7985 31.7993 56.6517 31.7996 56.5342 31.7413Z" fill="#31A8FF"/>
</g>
</g>
</g>
</svg>
