<svg width="83" height="80" viewBox="0 0 83 80" fill="none" xmlns="http://www.w3.org/2000/svg">
<g id="Group 4395">
<g id="Layer_2_1_">
<g id="Surfaces">
<g id="UI_UX_Surface">
<g id="Outline_no_shadow">
<path id="Vector" d="M15.3588 0.0147705H68.3323C76.3638 0.0147705 82.8574 6.48981 82.8574 14.4984V65.2763C82.8574 73.2849 76.3638 79.76 68.3323 79.76H15.3588C7.32728 79.76 0.83374 73.2849 0.83374 65.2763V14.4984C0.83374 6.48981 7.32728 0.0147705 15.3588 0.0147705Z" fill="#470137"/>
</g>
</g>
</g>
<g id="Outlined_Mnemonics_Logos">
<g id="Xd">
<path id="Vector_2" d="M43.9716 20.973L33.7186 37.8422L44.6551 55.7337C44.7235 55.87 44.7577 56.0063 44.7235 56.1427C44.6893 56.279 44.5526 56.1767 44.3475 56.2108H36.5211C35.9743 56.2108 35.5984 56.1767 35.3591 55.8359C34.6414 54.4046 33.8895 53.0074 33.1718 51.5761C32.4541 50.1788 31.6681 48.7475 30.8478 47.2821C30.0276 45.8167 29.2073 44.3513 28.3871 42.8518H28.3188C27.6011 44.3172 26.815 45.7826 26.0289 47.248C25.2429 48.7134 24.4568 50.1788 23.7049 51.6101C22.9189 53.0415 22.1328 54.5069 21.3467 55.9041C21.21 56.2449 20.9366 56.279 20.5607 56.279H13.0419C12.9052 56.279 12.8026 56.3471 12.8026 56.1767C12.7684 56.0404 12.8026 55.9041 12.871 55.8019L23.4999 38.4215L13.1444 20.9389C13.0419 20.8026 13.0077 20.6663 13.076 20.5981C13.1444 20.4959 13.2811 20.4618 13.4178 20.4618H21.1759C21.3467 20.4618 21.5176 20.4959 21.6543 20.53C21.791 20.5981 21.8936 20.7003 21.9961 20.8367C22.6455 22.3021 23.3973 23.7675 24.1834 25.2329C25.0036 26.6983 25.7897 28.1296 26.6441 29.5609C27.4643 30.9922 28.2162 32.4236 28.9339 33.889H29.0023C29.72 32.3895 30.4719 30.9241 31.2238 29.4928C31.9756 28.0614 32.7617 26.6301 33.5478 25.1988C34.3338 23.7675 35.0857 22.3021 35.8376 20.9048C35.8718 20.7685 35.9401 20.6322 36.0426 20.564C36.1794 20.4959 36.3161 20.4618 36.4869 20.4959H43.6982C43.8691 20.4618 44.04 20.564 44.0741 20.7344C44.1083 20.7685 44.0399 20.9048 43.9716 20.973Z" fill="#FF61F6"/>
<path id="Vector_3" d="M59.7614 56.9267C57.2323 56.9608 54.7032 56.4496 52.4134 55.3931C50.2603 54.4048 48.4831 52.769 47.2528 50.7584C45.9882 48.6795 45.373 46.0895 45.373 42.9883C45.3389 40.4665 45.9882 37.9787 47.2528 35.7976C48.5515 33.5825 50.4312 31.7422 52.6868 30.5154C55.0792 29.1863 57.95 28.5388 61.3335 28.5388C61.5044 28.5388 61.7436 28.5388 62.0512 28.5728C62.3588 28.6069 62.7005 28.6069 63.1107 28.641V17.872C63.1107 17.6334 63.2132 17.4971 63.4524 17.4971H70.3903C70.5611 17.463 70.6978 17.5994 70.732 17.7357C70.732 17.7698 70.732 17.8038 70.732 17.8038V50.2472C70.732 50.8606 70.7662 51.5422 70.8004 52.2919C70.8687 53.0076 70.9029 53.6892 70.9371 54.2685C70.9371 54.5071 70.8346 54.7116 70.5953 54.8138C68.8181 55.5635 66.9384 56.1088 65.0245 56.4496C63.2815 56.7563 61.5385 56.9267 59.7614 56.9267ZM63.1107 50.1109V35.116C62.8031 35.0479 62.4955 34.9797 62.1879 34.9456C61.812 34.9116 61.436 34.8775 61.0601 34.8775C59.7272 34.8775 58.3943 35.1501 57.1981 35.7635C56.0361 36.3429 55.045 37.1949 54.2931 38.2854C53.5412 39.3759 53.1653 40.8413 53.1653 42.6135C53.1311 43.8062 53.3362 44.999 53.7463 46.1236C54.0881 47.0437 54.6007 47.8616 55.2842 48.5432C55.9336 49.1566 56.7197 49.6338 57.6082 49.9064C58.531 50.2131 59.4879 50.3494 60.4449 50.3494C60.9575 50.3494 61.436 50.3153 61.8803 50.2813C62.3246 50.3153 62.7005 50.2472 63.1107 50.1109Z" fill="#FF61F6"/>
</g>
</g>
</g>
</g>
</svg>
